
        <svg xmlns="http://www.w3.org/2000/svg" xmlns:xlink="http://www.w3.org/1999/xlink" version="1.1" width="3259.3257530420906" height="1361.4602034709756" viewBox="0 0 3259.3257530420906 1361.4602034709756">
			
			<g transform="scale(12.966287652104528) translate(10, 10)">
				<defs id="SvgjsDefs2174"/><g id="SvgjsG2175" featureKey="0LeO0L-0" transform="matrix(5.7881146868442475,0,0,5.7881146868442475,0,-30.76336185230234)" fill="#000"><path d="M0 6.035 l4.7852 -0.0000095367 c1.6016 0 2.6367 0.56315 3.1055 1.6895 c0.20183 0.57942 0.30273 1.2435 0.30273 1.9922 l0 0.58594 c0 1.3542 -0.29622 2.386 -0.88867 3.0957 l-1.0156 0 l0 0.51758 l1.5527 0 l0 3.3398 l-0.91797 0 l0 0.51758 l1.3867 0 l0 1.9727 l-2.9102 0 l0 -3.1543 l-1.123 0 l0 -2.041 l-1.9531 0 l0 3.457 l0.41992 0 l0 1.9922 l-2.6953 0 c-0.032549 0 -0.048828 -0.016279 -0.048828 -0.048828 l0 -5.6055 l1.2012 0 l0 -0.40039 l-1.2012 0 l0 -7.9102 z M2.7441 8.311 l0 3.9453 l0.66406 0 c0.99609 0 1.5723 -0.094404 1.7285 -0.2832 c0.16276 -0.10417 0.28972 -0.31576 0.38086 -0.63478 l1.0352 0 l0 -0.49805 l-0.9375 0 l0 0.048828 c-0.05208 0.29948 -0.091143 0.44922 -0.11719 0.44922 l-1.3379 0 l0 -0.49805 l1.4063 0 c0.032549 0 0.048828 -0.013018 0.048828 -0.039063 c0.013018 -0.40364 0.019531 -0.6315 0.019531 -0.68358 c0 -0.87239 -0.14974 -1.4063 -0.44922 -1.6016 c-0.23438 -0.13672 -0.66406 -0.20508 -1.2891 -0.20508 l-1.1523 0 z M9.462889375 6.006 l2.6367 -0.0000095367 c0.026045 0.0065136 0.039063 0.022793 0.039063 0.048838 l0 6.7969 c0 0.032549 -0.013018 0.048828 -0.039063 0.048828 l-0.3125 0 l0 7.0508 c0 0.032549 -0.016279 0.048828 -0.048828 0.048828 l-2.2754 0 c-0.032549 0 -0.048828 -0.016279 -0.048828 -0.048828 l0 -7.2168 l-0.70313 0 c-0.032549 0 -0.048828 -0.016279 -0.048828 -0.048828 l0 -0.30273 c0.0065136 -0.032549 0.022793 -0.048828 0.048838 -0.048828 l0.70313 0 l0 -6.2793 c0.0065136 -0.032549 0.022793 -0.048828 0.048838 -0.048828 z M9.433569375 12.334 l0 0.40039 l1.3477 0 l0 -0.40039 l-1.3477 0 z"/></g><g id="SvgjsG2176" featureKey="pulpyG-0" transform="matrix(5.428712059003477,0,0,5.428712059003477,91.74277198801443,-24.857916324519124)" fill="#000"><path d="M3.42 13.16 l0 6.84 l-2.82 0 l0 -14.5 l3.06 0 l1.58 6.12 l1.58 -6.12 l3.08 0 l0 14.5 l-2.82 0 l0 -6.84 l-1.84 5.8 z M13.879999999999999 18.2 l-0.26 1.8 l-2.92 0 l2.62 -14.5 l3.1 0 l2.62 14.5 l-2.92 0 l-0.26 -1.8 l-1.98 0 z M14.2 15.9 l1.34 0 l-0.66 -5.14 z M21.96 20 c-0.84 0 -1.4267 -0.17334 -1.76 -0.52 s-0.5 -0.92 -0.5 -1.72 l0 -10.48 c0 -0.57334 0.16334 -1.0133 0.49 -1.32 s0.73 -0.46 1.21 -0.46 l3.82 0 l0.5 2.7 l-2.78 0 c-0.17334 0 -0.26 0.09334 -0.26 0.28 l0 8.54 c0 0.18666 0.08666 0.28 0.26 0.28 l2.78 0 l-0.52 2.7 l-3.24 0 z"/></g>
			</g>
		</svg>
	